<?xml version="1.0" encoding="UTF-8"?>
<svg width="205px" height="32px" viewBox="0 0 205 32" version="1.1" xmlns="http://www.w3.org/2000/svg" xmlns:xlink="http://www.w3.org/1999/xlink">
    <!-- Generator: Sketch 52.5 (67469) - http://www.bohemiancoding.com/sketch -->
    <title>aa-logo-light</title>
    <desc>Created with Sketch.</desc>
    <defs>
        <linearGradient x1="50.0011422%" y1="-2.63068167%" x2="50.0011422%" y2="151.456131%" id="linearGradient-1">
            <stop stop-color="#ED1C24" offset="0%"></stop>
            <stop stop-color="#E51C24" offset="14.71%"></stop>
            <stop stop-color="#D61C23" offset="29.96%"></stop>
            <stop stop-color="#C11A20" offset="45.45%"></stop>
            <stop stop-color="#A4171C" offset="61.12%"></stop>
            <stop stop-color="#821013" offset="76.77%"></stop>
            <stop stop-color="#780E0F" offset="81%"></stop>
        </linearGradient>
        <linearGradient x1="-0.000928677563%" y1="49.9989947%" x2="100.004643%" y2="49.9989947%" id="linearGradient-2">
            <stop stop-color="#69231D" offset="0%"></stop>
            <stop stop-color="#7A2720" offset="14.06%"></stop>
            <stop stop-color="#A72F27" offset="51.66%"></stop>
            <stop stop-color="#C5332A" offset="81.62%"></stop>
            <stop stop-color="#D1342A" offset="100%"></stop>
        </linearGradient>
        <linearGradient x1="19.4687143%" y1="53.9339994%" x2="79.1049153%" y2="3.2029271%" id="linearGradient-3">
            <stop stop-color="#EFF2F4" offset="10%"></stop>
            <stop stop-color="#D5DDE1" offset="36.38%"></stop>
            <stop stop-color="#A1B0B9" offset="89.32%"></stop>
            <stop stop-color="#96A7B0" offset="100%"></stop>
        </linearGradient>
        <linearGradient x1="50.0083382%" y1="113.022656%" x2="50.0083382%" y2="1.19534807%" id="linearGradient-4">
            <stop stop-color="#1C2F72" offset="0%"></stop>
            <stop stop-color="#004B88" offset="13.91%"></stop>
            <stop stop-color="#0066A0" offset="29.77%"></stop>
            <stop stop-color="#007EB7" offset="45.43%"></stop>
            <stop stop-color="#0092CB" offset="60.56%"></stop>
            <stop stop-color="#00A1DB" offset="75%"></stop>
            <stop stop-color="#00ABE7" offset="88.47%"></stop>
            <stop stop-color="#00AFEB" offset="100%"></stop>
        </linearGradient>
    </defs>
    <g id="aa-logo-light" stroke="none" stroke-width="1" fill="none" fill-rule="evenodd">
        <g id="aa-logo" fill-rule="nonzero">
            <path d="M90.1931659,25.4450109 L90.1931659,17.8366512 C90.1931659,16.3829085 89.5291535,15.4973271 88.2879504,15.4973271 C86.6425054,15.4973271 85.5485519,17.2469581 85.5485519,19.6098977 L85.5485519,25.4443163 L82.8772217,25.4443163 L82.8772217,16.7892341 C82.8772217,15.8376682 82.7890109,14.4485209 82.7459473,13.6629581 L84.8921798,13.6629581 C85.1380589,13.6629581 85.2075163,13.7643659 85.2082109,13.982462 C85.2137674,14.2311194 85.2339101,15.4514853 85.2339101,15.4514853 L85.2922543,15.4514853 C85.6180093,14.8979101 86.4403845,13.4156899 88.9054264,13.4156899 C91.4517333,13.4156899 92.8700527,15.1535132 92.8700527,17.1031814 L92.8700527,25.4443163 L90.1931659,25.4443163 L90.1931659,25.4450109 Z M69.2864992,22.8584186 C69.3580403,22.8584186 69.4580589,22.9042605 69.4802853,23.1105488 C69.5316837,23.6724589 69.5525209,24.5899907 69.5552992,24.8782388 C69.0204775,25.1428713 67.8640124,25.6686636 66.4443039,25.6686636 C62.8748899,25.6686636 60.6862884,23.5981395 60.6862884,19.5459969 C60.6862884,15.7494574 62.6331783,13.4191628 66.4443039,13.4191628 C67.7070388,13.4191628 68.8718388,13.8595225 69.5552992,14.2116713 C69.5552992,14.6304992 69.515014,15.5799814 69.4802853,15.9800558 C69.4643101,16.1481426 69.383045,16.227324 69.2864992,16.227324 C69.1795349,16.227324 69.1448062,16.2009302 69.0802109,16.1717581 C68.2210233,15.7508465 67.4111504,15.5459473 66.6818481,15.5459473 C64.4092031,15.5459473 63.4756961,17.033724 63.4756961,19.5459969 C63.4756961,21.7859969 64.2230574,23.5418791 66.6818481,23.5418791 C67.6216062,23.5418791 68.4773209,23.2070946 69.0072806,22.9507969 C69.1517519,22.8848124 69.176062,22.8584186 69.2864992,22.8584186 Z M78.5291907,25.4450109 C78.3145674,25.4450109 78.1353674,25.3727752 78.1103628,25.0609116 C78.083969,24.6761178 78.0325705,23.9315349 78.0325705,23.9315349 L77.9971473,23.9315349 C77.8373953,24.1482419 76.8636031,25.6686636 74.4159256,25.6686636 C72.0717395,25.6686636 70.7263504,23.8620775 70.7263504,21.8790698 C70.7263504,19.1299473 73.396986,17.7491349 77.357445,17.7491349 L77.8853209,17.7491349 L77.8853209,17.3164155 C77.8853209,16.0835473 77.0080744,15.420924 75.3674915,15.420924 C73.8915225,15.420924 72.6669891,15.939076 72.1891225,16.1821767 C72.1585612,16.1981519 72.0703504,16.2481612 71.991169,16.2481612 C71.8654512,16.2481612 71.7925209,16.1689798 71.7862698,16.0293705 C71.764738,15.5869271 71.7202853,14.7353798 71.7119504,14.1956961 C72.1946791,14.0109395 73.7963659,13.4156899 75.5571101,13.4156899 C79.0570667,13.4156899 80.560124,15.0423814 80.560124,17.6359194 L80.560124,22.2298295 C80.560124,23.9044465 80.7164031,25.0018729 80.7698853,25.4436217 C80.7698853,25.4450109 78.7167256,25.4450109 78.5291907,25.4450109 Z M77.8853209,19.4668155 L77.4310698,19.4668155 C74.0707225,19.4668155 73.4101829,20.6350884 73.4101829,21.8228093 C73.4101829,22.7924341 74.0498853,23.7106605 75.3056744,23.7106605 C76.9733457,23.7106605 77.8853209,22.1006388 77.8853209,20.4044899 L77.8853209,19.4668155 Z M44.3415814,22.8584186 C44.4867473,22.8584186 44.5318946,22.9876093 44.5443969,23.121662 C44.5895442,23.6238388 44.6346915,24.762245 44.6270512,25.0491039 C44.3415814,25.1407876 42.9052031,25.6686636 40.9735938,25.6686636 C37.2228961,25.6686636 34.9676155,23.7266357 34.9676155,19.5487752 C34.9676155,15.9703318 36.8895008,13.4184682 40.3519504,13.4184682 C43.7414698,13.4184682 45.3598264,15.6876403 45.3598264,18.5076093 C45.3598264,18.8389209 45.3223194,19.3973581 45.262586,20.1398574 L37.7104868,20.1398574 C37.7104868,22.1534264 38.9919752,23.5981395 41.3569984,23.5981395 C42.664186,23.5981395 43.7046574,23.1306915 44.1165395,22.9285705 C44.1984992,22.8889798 44.2436465,22.8584186 44.3415814,22.8584186 Z M37.7410481,18.3409116 L42.6912744,18.3409116 C42.7926822,16.4447256 41.7973581,15.3792496 40.2908279,15.3792496 C38.716924,15.3792496 37.8146729,16.5204341 37.7410481,18.3409116 Z M30.3445333,25.4450109 L30.3445333,17.9068031 C30.3445333,16.5489116 29.7708155,15.495938 28.3837519,15.495938 C26.823045,15.495938 25.9235721,17.2045891 25.9235721,19.5953116 L25.9235721,25.4443163 L23.2508527,25.4443163 L23.2508527,17.882493 C23.2508527,16.6489302 22.7354791,15.4952434 21.3004899,15.4952434 C19.7189457,15.4952434 18.8333643,17.1990326 18.8333643,19.6786605 L18.8333643,25.4436217 L16.1564775,25.4436217 L16.1564775,16.8621643 C16.1564775,15.7557085 16.0564589,14.1873612 16.0258977,13.6629581 L18.1672682,13.6629581 C18.4068961,13.6629581 18.4867721,13.7428341 18.4916341,13.9914915 C18.4971907,14.3047442 18.5180279,15.4521798 18.5180279,15.4521798 L18.5784558,15.4521798 C18.7416806,15.1167008 19.6203163,13.4163845 22.0756341,13.4163845 C24.3628651,13.4163845 25.2401116,15.0597457 25.4568186,15.5653953 C25.6665798,15.1194791 26.6820465,13.4163845 28.988031,13.4163845 C31.3843101,13.4163845 33.020031,14.704124 33.020031,17.2886326 L33.020031,25.4443163 L30.3445333,25.4443163 L30.3445333,25.4450109 Z M50.0933457,19.697414 L50.0933457,25.4443163 L47.4157643,25.4443163 L47.4157643,16.6906047 C47.4157643,15.8466977 47.3206078,14.2464 47.2844899,13.6629581 L49.4453085,13.6629581 C49.6779907,13.6629581 49.7474481,13.7636713 49.7495318,13.9914915 C49.7557829,14.3401674 49.7759256,15.4521798 49.7759256,15.4521798 L49.8356589,15.4521798 C50.0495876,14.9444465 50.8059783,13.4184682 53.028614,13.4184682 C53.769724,13.4184682 54.3246884,13.6574016 54.4163721,13.694214 C54.4163721,14.2005581 54.3615008,15.3146543 54.3358016,15.6098481 C54.3184372,15.8008558 54.2309209,15.8633674 54.1378481,15.8633674 C54.0468589,15.8633674 54.0024062,15.8460031 53.9523969,15.8244713 C53.7815318,15.7536248 53.3953488,15.6348527 52.8598326,15.6348527 C51.4331783,15.6348527 50.0933457,16.6656 50.0933457,19.697414 Z M55.8326078,25.4450109 L55.8326078,13.6636527 L58.503938,13.6636527 L58.503938,25.4450109 L55.8326078,25.4450109 Z M55.8013519,11.9424992 L55.8013519,9.35660155 L58.5365829,9.35660155 L58.5365829,11.9424992 L55.8013519,11.9424992 Z M12.1043349,25.4450109 L10.8770233,21.9707535 L4.32580465,21.9707535 L3.09988217,25.4450109 L0.304223256,25.4450109 L6.17337054,9.97755039 L9.28783876,9.97755039 L15.0653023,25.4450109 L12.1043349,25.4450109 Z M7.6264186,12.7975194 L7.57710388,12.7975194 L5.07316589,19.8731411 L10.1310512,19.8731411 L7.6264186,12.7975194 Z M165.248099,25.6686636 C168.730691,25.6686636 170.394195,24.2468713 170.394195,22.1298109 C170.394195,20.0467845 168.914753,19.1702326 167.346406,18.651386 C166.897712,18.5076093 166.456657,18.3589705 166.04547,18.221445 C164.972353,17.8665178 164.416695,17.3997643 164.416695,16.7038016 C164.416695,15.9696372 165.086958,15.4570419 166.477495,15.4570419 C167.71453,15.4570419 168.727219,15.9606078 169.126598,16.1536992 C169.192583,16.1835659 169.253705,16.227324 169.359975,16.227324 C169.444713,16.227324 169.548205,16.175231 169.562791,15.9675535 C169.589184,15.5723411 169.636416,14.8562357 169.636416,14.1686078 C169.31205,14.0192744 168.139609,13.4184682 166.258009,13.4184682 C163.381085,13.4184682 161.61409,14.9138853 161.61409,16.8885581 C161.61409,18.8021085 162.923361,19.6751876 164.363907,20.1537488 C164.694524,20.2648806 165.309222,20.4676961 165.669011,20.5878574 C167.172763,21.088645 167.599926,21.5408124 167.599926,22.2451101 C167.599926,23.1619473 166.624744,23.6155039 164.942487,23.6155039 C163.564453,23.6155039 162.615665,23.1091597 162.235733,22.9313488 C162.157941,22.8980093 162.112099,22.8591132 162.005829,22.8591132 C161.807876,22.8591132 161.803709,23.1223566 161.80093,23.1647256 C161.793984,23.2918326 161.730084,24.5121984 161.730084,24.9192186 C162.046809,25.0539659 163.412341,25.6686636 165.248099,25.6686636 Z M158.985129,22.8584186 C159.133767,22.8584186 159.176136,22.9876093 159.189333,23.121662 C159.235175,23.6238388 159.278239,24.7594667 159.271293,25.0491039 C158.985129,25.1407876 157.54875,25.6686636 155.617836,25.6686636 C151.867833,25.6686636 149.611163,23.729414 149.611163,19.5515535 C149.611163,15.9675535 151.535132,13.4184682 154.992719,13.4184682 C158.387795,13.4184682 160.00129,15.6890295 160.00129,18.5076093 C160.00129,18.8389209 159.967256,19.3973581 159.907522,20.1426357 L152.354034,20.1426357 C152.354034,22.1541209 153.636912,23.5981395 156.005408,23.5981395 C157.310512,23.5981395 158.348899,23.1306915 158.760087,22.9313488 C158.842741,22.8910636 158.889972,22.8584186 158.985129,22.8584186 Z M152.388763,18.3423008 L157.335516,18.3423008 C157.438313,16.4447256 156.4416,15.3806388 154.937153,15.3806388 C153.36325,15.3806388 152.460304,16.5204341 152.388763,18.3423008 Z M144.988081,25.4450109 L144.988081,17.8366512 C144.988081,16.3829085 144.325457,15.4973271 143.081476,15.4973271 C141.436031,15.4973271 140.344856,17.2483473 140.344856,19.6098977 L140.344856,25.4443163 L137.670747,25.4443163 L137.670747,16.7892341 C137.670747,15.8376682 137.582536,14.4499101 137.538778,13.6643473 L139.687789,13.6643473 C139.931584,13.6643473 139.998958,13.7643659 140.002431,13.982462 C140.008682,14.2338977 140.030214,15.4514853 140.030214,15.4514853 L140.092031,15.4514853 C140.413619,14.8986047 141.235994,13.4156899 143.701036,13.4156899 C146.243175,13.4156899 147.662884,15.1535132 147.662884,17.1045705 L147.662884,25.4443163 L144.988081,25.4443163 L144.988081,25.4450109 Z M120.639107,19.697414 L120.639107,25.4443163 L117.959442,25.4443163 L117.959442,16.6906047 C117.959442,15.8487814 117.861507,14.2464 117.829557,13.6643473 L119.988291,13.6643473 C120.221668,13.6643473 120.289042,13.7629767 120.294598,13.9935752 C120.298766,14.3415566 120.317519,15.4514853 120.317519,15.4514853 L120.379336,15.4514853 C120.590487,14.9437519 121.348961,13.4177736 123.572291,13.4177736 C124.31618,13.4177736 124.866282,13.6580961 124.956577,13.694214 C124.956577,14.2012527 124.903095,15.3139597 124.87809,15.6091535 C124.860726,15.8008558 124.776682,15.8647566 124.680831,15.8647566 C124.589147,15.8647566 124.546778,15.8453085 124.496074,15.8237767 C124.329377,15.7536248 123.940416,15.6355473 123.401426,15.6355473 C121.974772,15.6369364 120.639107,16.6656 120.639107,19.697414 Z M129.160136,25.4450109 L129.160136,9.37257674 L126.486722,9.37257674 L126.486722,25.4450109 L129.160136,25.4450109 Z M112.370902,25.4450109 L112.370902,13.6636527 L115.044316,13.6636527 L115.044316,25.4450109 L112.370902,25.4450109 Z M112.338257,11.9445829 L112.338257,9.35660155 L115.075572,9.35660155 L115.075572,11.9445829 L112.338257,11.9445829 Z M132.080124,25.4450109 L132.080124,13.6636527 L134.752843,13.6636527 L134.752843,25.4450109 L132.080124,25.4450109 Z M132.049563,11.9445829 L132.049563,9.3579907 L134.784099,9.3579907 L134.784099,11.9445829 L132.049563,11.9445829 Z M108.311814,25.4450109 L107.085891,21.9707535 L100.535367,21.9707535 L99.3080558,25.4450109 L96.5117023,25.4450109 L102.378766,9.97755039 L105.495318,9.97755039 L111.274171,25.4450109 L108.311814,25.4450109 Z M103.834592,12.7975194 L103.785972,12.7975194 L101.282034,19.8731411 L106.341309,19.8731411 L103.834592,12.7975194 Z" id="American_Airlines_Logotype" fill="#F3F5F7"></path>
            <path d="M190.038127,28.8456434 C191.845408,31.8163349 194.732056,31.7566016 195.500254,31.7566016 L204.78462,31.7566909 L193.830499,18.4576 C188.777476,18.6666667 186.101978,21.9075473 186.650691,23.2675225 L190.038127,28.8456434 Z" id="Red_Gradient_1_" fill="url(#linearGradient-1)"></path>
            <path d="M186.650691,23.2675225 C186.636105,23.243907 186.350636,22.5736434 186.350636,21.763076 C186.350636,18.7264 189.040719,16.986493 192.100316,16.3585984 L193.829805,18.4576 C188.776781,18.6666667 186.101978,21.9075473 186.650691,23.2675225 Z" id="Beak_Shadow_3_" fill="url(#linearGradient-2)"></path>
            <path d="M190.875783,13.3962419 C186.258257,13.3962419 182.809005,14.1568 182.809005,15.9640806 C182.809005,16.6287876 183.016682,17.2059783 183.581371,18.221445 L186.650691,23.2675225 C186.636105,23.243907 186.350636,22.5736434 186.350636,21.763076 C186.350636,18.7264 189.040719,16.986493 192.100316,16.3585984 C192.987981,16.175231 193.898567,16.0884093 194.7904,16.0884093 C195.54054,16.0884093 196.243448,16.128 196.784521,16.3231752 C196.465017,15.1611535 195.621805,13.3962419 190.875783,13.3962419 Z" id="Beak_3_" fill="url(#linearGradient-3)"></path>
            <path d="M178.726301,10.2484341 C179.996676,12.3307659 180.466208,12.850307 183.488298,12.8537798 L189.263678,12.8537798 L181.30178,2.79704806 C179.544509,0.624421705 178.53182,0.225736434 176.918326,0.192396899 L172.603634,0.192396899 L178.726301,10.2484341 Z" id="Blue_Gradient_2_" fill="url(#linearGradient-4)"></path>
        </g>
    </g>
</svg>